<svg width="16" height="21" viewBox="0 0 16 21" fill="none" xmlns="http://www.w3.org/2000/svg">
<path d="M5.97308 16H7V11H9V16H10.0269C10.1589 14.7984 10.7721 13.8065 11.7676 12.7226C11.8797 12.6006 12.5988 11.8564 12.6841 11.7501C13.5318 10.6931 14 9.385 14 8C14 4.68629 11.3137 2 8 2C4.68629 2 2 4.68629 2 8C2 9.3843 2.46774 10.6917 3.31462 11.7484C3.40004 11.855 4.12081 12.6012 4.23154 12.7218C5.22766 13.8064 5.84103 14.7984 5.97308 16ZM6 18V19H10V18H6ZM1.75395 12.9992C0.65645 11.6297 0 9.8915 0 8C0 3.58172 3.58172 0 8 0C12.4183 0 16 3.58172 16 8C16 9.8925 15.3428 11.6315 14.2443 13.0014C13.624 13.7748 12 15 12 16.5V19C12 20.1046 11.1046 21 10 21H6C4.89543 21 4 20.1046 4 19V16.5C4 15 2.37458 13.7736 1.75395 12.9992Z" fill="#AAAAAA"/>
</svg>
