<svg width="60" height="30" viewBox="0 0 60 30" fill="none" xmlns="http://www.w3.org/2000/svg">
<rect width="60" height="30" rx="3" fill="#3F3F3F"/>
<path d="M32.1667 11.667H37.5002C38.4207 11.667 39.1668 12.4131 39.1668 13.3336V15.0873C39.1668 15.3049 39.1242 15.5205 39.0413 15.7218L36.4627 21.9843C36.3341 22.2965 36.0297 22.5003 35.6921 22.5003H21.6668C21.2066 22.5003 20.8335 22.1272 20.8335 21.6669V13.3336C20.8335 12.8734 21.2066 12.5003 21.6668 12.5003H24.5684C24.8391 12.5003 25.093 12.3687 25.2492 12.1475L29.7937 5.70947C29.9124 5.54125 30.1362 5.48499 30.3204 5.57708L31.8322 6.33294C32.7085 6.77113 33.1611 7.76078 32.9194 8.7103L32.1667 11.667ZM25.8335 13.8232V20.8336H35.134L37.5002 15.0873V13.3336H32.1667C31.0794 13.3336 30.2833 12.3094 30.5515 11.2558L31.3042 8.29913C31.3526 8.10922 31.2621 7.91129 31.0867 7.82365L30.5358 7.54818L26.6108 13.1087C26.4025 13.4037 26.1363 13.6455 25.8335 13.8232ZM24.1668 14.1669H22.5002V20.8336H24.1668V14.1669Z" fill="#D9D9D9"/>
</svg>
